<?xml version="1.0" encoding="UTF-8" standalone="no"?>
<!-- Generator: Gravit.io -->

<svg
   xmlns:dc="http://purl.org/dc/elements/1.1/"
   xmlns:cc="http://creativecommons.org/ns#"
   xmlns:rdf="http://www.w3.org/1999/02/22-rdf-syntax-ns#"
   xmlns:svg="http://www.w3.org/2000/svg"
   xmlns="http://www.w3.org/2000/svg"
   xmlns:sodipodi="http://sodipodi.sourceforge.net/DTD/sodipodi-0.dtd"
   xmlns:inkscape="http://www.inkscape.org/namespaces/inkscape"
   style="isolation:isolate"
   viewBox="0 0 157.554 157.554"
   width="157.554"
   height="157.554"
   version="1.1"
   id="svg45"
   sodipodi:docname="equitable.svg"
   inkscape:version="0.92.3 (2405546, 2018-03-11)">
  <metadata
     id="metadata49">
    <rdf:RDF>
      <cc:Work
         rdf:about="">
        <dc:format>image/svg+xml</dc:format>
        <dc:type
           rdf:resource="http://purl.org/dc/dcmitype/StillImage" />
      </cc:Work>
    </rdf:RDF>
  </metadata>
  <sodipodi:namedview
     pagecolor="#ffffff"
     bordercolor="#666666"
     borderopacity="1"
     objecttolerance="10"
     gridtolerance="10"
     guidetolerance="10"
     inkscape:pageopacity="0"
     inkscape:pageshadow="2"
     inkscape:window-width="1600"
     inkscape:window-height="840"
     id="namedview47"
     showgrid="false"
     inkscape:zoom="0.51104566"
     inkscape:cx="281.333"
     inkscape:cy="78.927"
     inkscape:window-x="0"
     inkscape:window-y="28"
     inkscape:window-maximized="1"
     inkscape:current-layer="g43" />
  <defs
     id="defs5">
    <clipPath
       id="_clipPath_SEOXYtFlDkG9iJ827x02lraD8ThYkOE8">
      <rect
         width="679"
         height="273"
         id="rect2"
         x="0"
         y="0" />
    </clipPath>
  </defs>
  <g
     clip-path="url(#_clipPath_SEOXYtFlDkG9iJ827x02lraD8ThYkOE8)"
     id="g43"
     transform="translate(-58.167,-57.873)">
    <rect
       x="0.39399999"
       y="0.1"
       width="678.20898"
       height="273"
       id="rect7"
       style="fill:none" />
    <g
       id="g35">
      <path
         d="m 300.635,108.661 v 11.076 H 257.33 V 62.064 h 42.506 v 11.175 h -30.133 v 11.575 h 23.448 v 11.075 h -23.448 v 12.772 z"
         id="path9"
         inkscape:connector-curvature="0"
         style="fill:#ffffff" />
      <path
         d="m 313.107,114.548 c -3.891,-4.091 -5.787,-9.08 -5.787,-14.967 0,-5.887 1.896,-10.876 5.787,-14.967 3.892,-4.091 8.382,-6.087 13.67,-6.087 2.295,0 4.49,0.499 6.486,1.497 1.995,0.998 3.392,1.896 4.29,2.794 l 1.298,1.497 v -4.989 h 11.075 v 57.773 h -11.275 v -22.251 c -0.1,0.199 -0.299,0.399 -0.499,0.598 -0.199,0.3 -0.698,0.699 -1.497,1.397 -0.798,0.699 -1.496,1.297 -2.394,1.796 -0.898,0.499 -1.996,0.998 -3.393,1.397 -1.397,0.399 -2.794,0.599 -4.29,0.599 -5.089,0 -9.679,-2.096 -13.471,-6.087 z m 8.681,-22.949 c -1.896,2.095 -2.894,4.789 -2.894,7.982 0,3.293 0.998,5.887 2.894,7.983 1.896,2.095 4.291,3.093 6.985,3.093 2.694,0 5.089,-0.998 6.984,-3.093 1.896,-2.096 2.894,-4.79 2.894,-7.983 0,-3.293 -0.998,-5.887 -2.894,-7.982 -1.895,-2.096 -4.29,-3.094 -6.984,-3.094 -2.694,0 -5.089,0.998 -6.985,3.094 z"
         id="path11"
         inkscape:connector-curvature="0"
         style="fill:#ffffff" />
      <path
         d="m 387.743,115.646 c -0.299,0.399 -0.798,0.798 -1.397,1.397 -0.598,0.598 -1.896,1.297 -3.891,2.195 -1.996,0.898 -4.091,1.397 -6.286,1.397 -4.59,0 -8.382,-1.597 -11.276,-4.69 -2.893,-3.093 -4.39,-7.184 -4.39,-12.373 V 79.326 h 11.076 v 23.149 c 0,2.295 0.698,4.091 2.195,5.588 1.497,1.496 3.392,2.195 5.588,2.195 2.494,0 4.49,-0.799 5.986,-2.495 1.497,-1.596 2.196,-3.991 2.196,-6.984 V 79.326 h 11.075 v 40.411 h -11.075 v -4.091 z"
         id="path13"
         inkscape:connector-curvature="0"
         style="fill:#ffffff" />
      <path
         d="m 420.471,72.341 c -1.197,1.098 -2.794,1.696 -4.789,1.696 -1.896,0 -3.393,-0.598 -4.49,-1.696 -1.098,-1.098 -1.697,-2.594 -1.697,-4.49 0,-1.896 0.599,-3.393 1.697,-4.49 1.097,-1.098 2.594,-1.697 4.49,-1.697 1.995,0 3.692,0.599 4.789,1.697 1.198,1.097 1.796,2.594 1.796,4.49 0,1.796 -0.598,3.293 -1.796,4.49 z m 0.998,47.496 H 410.294 V 79.326 h 11.175 z"
         id="path15"
         inkscape:connector-curvature="0"
         style="fill:#ffffff" />
      <path
         d="m 437.534,67.452 h 9.878 v 12.772 h 8.182 v 9.878 h -8.182 v 16.065 c 0,1.297 0.499,2.295 1.397,3.193 0.898,0.898 2.095,1.297 3.492,1.297 0.699,0 1.397,-0.1 2.096,-0.2 0.698,-0.1 1.197,-0.299 1.596,-0.499 l 0.499,-0.199 v 9.479 c -2.195,0.798 -4.69,1.197 -7.484,1.197 -8.481,0 -12.771,-4.689 -12.771,-13.969 V 90.102 h -6.985 v -9.878 h 3.692 c 1.297,0 2.295,-0.499 3.193,-1.497 0.898,-0.998 1.297,-2.295 1.297,-3.891 z"
         id="path17"
         inkscape:connector-curvature="0"
         style="fill:#ffffff" />
      <path
         d="m 486.626,115.646 c -0.3,0.399 -0.798,0.798 -1.397,1.397 -0.599,0.598 -1.796,1.297 -3.792,2.195 -1.896,0.898 -3.991,1.397 -6.086,1.397 -3.992,0 -7.284,-1.098 -9.779,-3.393 -2.494,-2.195 -3.792,-4.989 -3.792,-8.182 0,-3.292 1.098,-6.086 3.193,-8.281 2.096,-2.196 5.089,-3.593 8.781,-4.291 l 12.772,-2.295 c 0,-1.696 -0.599,-3.093 -1.896,-4.191 -1.197,-1.097 -2.993,-1.596 -5.188,-1.596 -1.796,0 -3.493,0.299 -4.989,0.998 -1.497,0.698 -2.595,1.396 -3.193,2.095 l -0.898,0.998 -6.187,-6.187 c 0.2,-0.199 0.399,-0.499 0.699,-0.898 0.299,-0.399 0.898,-0.998 1.895,-1.896 0.998,-0.898 2.096,-1.696 3.193,-2.394 1.198,-0.699 2.694,-1.297 4.59,-1.896 1.896,-0.599 3.792,-0.898 5.788,-0.898 5.088,0 9.279,1.497 12.472,4.59 3.193,3.093 4.79,6.885 4.79,11.475 v 25.144 h -11.076 v -3.891 z m -2.295,-6.486 c 1.497,-1.596 2.195,-3.792 2.195,-6.685 v -1.297 l -9.08,1.696 c -2.993,0.499 -4.59,1.996 -4.59,4.59 0,2.694 1.796,4.091 5.388,4.091 2.594,0 4.59,-0.798 6.087,-2.395 z"
         id="path19"
         inkscape:connector-curvature="0"
         style="fill:#ffffff" />
      <path
         d="m 545.496,84.614 c 3.792,4.091 5.788,9.08 5.788,14.967 0,5.887 -1.896,10.876 -5.788,14.967 -3.891,4.091 -8.381,6.087 -13.57,6.087 -2.295,0 -4.49,-0.499 -6.486,-1.397 -1.995,-0.998 -3.392,-1.896 -4.29,-2.794 l -1.197,-1.497 v 4.989 H 508.777 V 62.064 h 11.176 v 22.251 c 0.099,-0.2 0.299,-0.399 0.498,-0.599 0.2,-0.2 0.699,-0.698 1.397,-1.397 0.699,-0.698 1.497,-1.297 2.395,-1.796 0.898,-0.499 1.996,-0.998 3.393,-1.397 1.397,-0.399 2.794,-0.599 4.29,-0.599 5.189,0 9.779,2.096 13.57,6.087 z m -8.681,22.95 c 1.896,-2.096 2.894,-4.79 2.894,-7.983 0,-3.293 -0.998,-5.887 -2.894,-7.982 -1.895,-2.096 -4.29,-3.094 -6.984,-3.094 -2.794,0 -5.089,0.998 -6.985,3.094 -1.896,2.095 -2.893,4.789 -2.893,7.982 0,3.293 0.997,5.887 2.893,7.983 1.896,2.095 4.291,3.093 6.985,3.093 2.794,0.1 5.089,-0.998 6.984,-3.093 z"
         id="path21"
         inkscape:connector-curvature="0"
         style="fill:#ffffff" />
      <path
         d="M 571.04,119.837 H 559.865 V 62.064 h 11.175 z"
         id="path23"
         inkscape:connector-curvature="0"
         style="fill:#ffffff" />
      <path
         d="m 591.196,103.273 c 0.399,2.195 1.596,4.091 3.492,5.588 1.896,1.496 4.291,2.295 7.184,2.295 2.096,0 3.992,-0.399 5.788,-1.198 1.796,-0.798 2.993,-1.596 3.791,-2.494 l 1.198,-1.297 5.787,7.383 -0.698,0.699 c -0.3,0.299 -1.098,0.898 -2.196,1.696 -1.097,0.798 -2.294,1.497 -3.492,2.195 -1.197,0.599 -2.794,1.198 -4.789,1.697 -1.996,0.499 -3.992,0.698 -6.087,0.698 -5.887,0 -10.976,-2.095 -15.167,-6.186 -4.19,-4.091 -6.286,-9.08 -6.286,-14.868 0,-5.787 2.096,-10.676 6.187,-14.867 4.091,-4.091 9.08,-6.186 14.867,-6.186 5.787,0 10.577,1.895 14.368,5.787 3.792,3.891 5.788,8.681 5.788,14.468 l -0.4,4.49 h -29.335 z m 3.492,-13.171 c -1.696,1.397 -2.794,3.193 -3.492,5.388 h 18.559 c -0.399,-2.195 -1.497,-3.891 -3.093,-5.288 -1.597,-1.397 -3.592,-2.096 -5.987,-2.096 -2.395,0 -4.29,0.599 -5.987,1.996 z"
         id="path25"
         inkscape:connector-curvature="0"
         style="fill:#ffffff" />
      <path
         d="m 257.43,197.765 v -57.773 h 24.745 c 5.189,0 9.579,1.497 12.972,4.59 3.392,3.093 5.088,6.586 5.088,10.677 0,1.496 -0.199,2.993 -0.598,4.39 -0.399,1.397 -0.998,2.495 -1.697,3.492 -0.698,0.898 -1.297,1.697 -1.995,2.395 -0.699,0.699 -1.198,1.098 -1.597,1.397 l -0.698,0.399 c 0.299,0.1 0.599,0.3 0.998,0.499 0.399,0.2 1.197,0.699 2.295,1.497 1.097,0.798 2.095,1.696 2.893,2.594 0.799,0.898 1.597,2.195 2.295,3.892 0.699,1.596 0.998,3.392 0.998,5.188 0,4.59 -1.796,8.581 -5.488,11.874 -3.692,3.293 -8.381,4.989 -14.069,4.989 z m 12.372,-47.495 v 12.373 h 11.475 c 1.996,0 3.692,-0.599 4.79,-1.697 1.197,-1.097 1.796,-2.594 1.796,-4.49 0,-1.896 -0.599,-3.392 -1.796,-4.49 -1.198,-1.098 -2.794,-1.696 -4.79,-1.696 z m 13.171,37.118 c 2.295,0 4.091,-0.698 5.588,-2.095 1.497,-1.397 2.195,-3.193 2.195,-5.289 0,-2.095 -0.698,-3.891 -2.195,-5.288 -1.497,-1.397 -3.392,-2.195 -5.588,-2.195 h -13.171 v 14.867 z"
         id="path27"
         inkscape:connector-curvature="0"
         style="fill:#ffffff" />
      <path
         d="m 334.56,193.575 c -0.299,0.399 -0.798,0.798 -1.397,1.396 -0.599,0.599 -1.796,1.298 -3.792,2.196 -1.895,0.898 -3.991,1.397 -6.086,1.397 -3.991,0 -7.284,-1.098 -9.779,-3.393 -2.494,-2.195 -3.791,-4.989 -3.791,-8.182 0,-3.293 1.097,-6.087 3.193,-8.282 2.095,-2.195 5.088,-3.592 8.78,-4.29 l 12.772,-2.295 c 0,-1.697 -0.598,-3.093 -1.896,-4.191 -1.197,-1.098 -2.993,-1.597 -5.188,-1.597 -1.796,0 -3.493,0.3 -4.989,0.998 -1.497,0.699 -2.595,1.397 -3.193,2.096 l -0.898,0.997 -6.187,-6.186 c 0.2,-0.2 0.399,-0.499 0.699,-0.898 0.299,-0.399 0.898,-0.998 1.896,-1.896 0.997,-0.898 2.095,-1.696 3.193,-2.395 1.197,-0.698 2.694,-1.297 4.59,-1.895 1.895,-0.599 3.791,-0.898 5.787,-0.898 5.089,0 9.279,1.496 12.472,4.589 3.193,3.094 4.79,6.885 4.79,11.475 v 25.145 H 334.46 v -3.891 z m -2.195,-6.486 c 1.497,-1.597 2.195,-3.792 2.195,-6.685 v -1.298 l -9.08,1.697 c -2.993,0.499 -4.59,1.995 -4.59,4.59 0,2.694 1.796,4.091 5.388,4.091 2.495,0 4.59,-0.799 6.087,-2.395 z"
         id="path29"
         inkscape:connector-curvature="0"
         style="fill:#ffffff" />
      <path
         d="m 367.488,162.243 c 0.299,-0.399 0.798,-0.997 1.397,-1.596 0.598,-0.599 1.895,-1.497 3.891,-2.594 1.996,-1.098 4.091,-1.597 6.286,-1.597 4.59,0 8.382,1.597 11.275,4.79 2.894,3.193 4.391,7.483 4.391,12.971 v 23.548 h -11.176 v -22.251 c 0,-2.494 -0.698,-4.49 -2.195,-5.987 -1.497,-1.496 -3.392,-2.295 -5.687,-2.295 -2.495,0 -4.49,0.799 -5.987,2.495 -1.497,1.696 -2.195,3.991 -2.195,6.985 v 21.053 h -11.076 v -40.411 h 11.076 z"
         id="path31"
         inkscape:connector-curvature="0"
         style="fill:#ffffff" />
      <path
         d="m 416.979,187.787 v 9.879 h -11.176 v -57.773 h 11.176 v 33.825 l 14.368,-16.464 h 12.772 l -15.166,17.362 16.064,23.05 H 432.644 L 421.868,182 Z"
         id="path33"
         inkscape:connector-curvature="0"
         style="fill:#ffffff" />
    </g>
    <g
       id="g41">
      <path
         d="m 187.284,164.638 c 0,12.373 -9.978,22.351 -22.351,22.351 H 86.605 l -28.438,28.438 h 106.766 c 28.038,0 50.788,-22.75 50.788,-50.789 V 57.873 L 187.284,86.31 Z"
         id="path37"
         inkscape:connector-curvature="0"
         style="fill:#ff9100" />
      <path
         d="m 86.605,186.989 v -78.328 c 0,-12.373 9.978,-22.351 22.351,-22.351 h 78.328 L 215.721,57.873 H 108.956 c -27.939,0 -50.789,22.75 -50.789,50.788 v 106.766 z"
         id="path39"
         inkscape:connector-curvature="0"
         style="fill:#ffcb05" />
    </g>
  </g>
</svg>
