<svg version="1.1" id="Layer_1" xmlns="http://www.w3.org/2000/svg" xmlns:xlink="http://www.w3.org/1999/xlink" x="0px" y="0px"
	 viewBox="0 0 662.1 166.5" style="enable-background:new 0 0 662.1 166.5;" preserveAspectRatio="xMidYMid meet">
<style type="text/css">
	.st0{fill:#DF6F1D;}
	.st1{fill:#043673;}
</style>
<g>
	<path class="st0" d="M63.1,16.5c0,1.6,0,11.8,0,13.3c1.6,0,12.4,0,12.4,0v46.2c0,0-9.6,0-11.3,0c0,1.6,0,12.2,0,13.8
		c1.8,0,36.4,0,38.2,0c0-1.6,0-12.2,0-13.8c-1.6,0-11.6,0-11.6,0s0-57.7,0-59.5C89.1,16.5,64.8,16.5,63.1,16.5z"/>
	<path class="st1" d="M2.8,1.3c0,1.9,0,86.4,0,88.3c1.7,0,16.2,0,17.8,0c0-1.8,0-35.6,0-35.6s24.2,0,26,0c0-1.6,0-12,0-13.6
		c-1.8,0-26,0-26,0V15c0,0,31.9,0,33.7,0c0-1.6,0-12,0-13.6C52.5,1.3,4.6,1.3,2.8,1.3z"/>
	<path class="st1" d="M130.3,34.2c0,0,0-15.6,0-17.3c-1.6,0-13.1,0-14.7,0c0,1.9,0,70.9,0,72.7c1.6,0,15,0,16.6,0
		c0-1.8,0-31.3,0-31.3c0-5.9,0-24,14.6-24c0,0,2.6,0.1,5,1c0-1.8,0-17,0-18.4c-2.3-0.9-5.1-1.1-5.1-1.1
		C136.6,15.8,131.9,27.8,130.3,34.2z"/>
	<path class="st1" d="M541.1,34.2c0,0,0-15.6,0-17.3c-1.6,0-13.1,0-14.7,0c0,1.9,0,70.9,0,72.7c1.6,0,15,0,16.6,0
		c0-1.8,0-31.3,0-31.3c0-5.9,0-24,14.6-24c0,0,2.6,0.1,5,1c0-1.8,0-17,0-18.4c-2.3-0.9-5.1-1.1-5.1-1.1
		C547.4,15.8,542.7,27.8,541.1,34.2z"/>
	<path class="st1" d="M160.1,38.2c0,15.8,13.6,20.4,19.4,22.4c6.6,2.4,11.3,4.1,11.3,10.7c0,4.9-3.1,7.9-8.4,7.9
		c-5.9,0-9.6-3.8-11.2-11c-1.4,0.3-11.4,2.1-13,2.4c1,6.3,3.8,20.4,23.9,20.4c16.8,0,24.3-11.7,24.3-23.3c0-14.4-9.7-18.2-19.1-21.8
		l-0.5-0.2c-7.2-2.9-11.2-4.5-11.2-10.9c0-3.4,1.8-7.4,6.8-7.4c7,0,9.3,6.1,10.4,9.8c1.5-0.5,9.9-3.3,11.4-3.8
		c-2.5-11-10.6-17.8-21.4-17.8C171.5,15.6,160.1,22.6,160.1,38.2z"/>
	<path class="st1" d="M223.6,6.5c0,1.7,0.2,10.5,0.2,10.5s-6.8,0-8.3,0c0,1.6,0,12.1,0,13.7c1.4,0,7.3,0,7.3,0v31.3
		c0,9.4,0,16.8,3.1,21.8c3.8,6,10.7,7.2,15.8,7.2c4.5,0,7.9-0.7,10.5-1.3c0-1.3,0-12.4,0-14.1c-5.6,0.3-8.9,0.1-10.9-1.7
		c-2.4-2.2-2.4-6.2-2.4-14.2v-29c0,0,10.7,0,12.3,0c0-1.6,0-12.1,0-13.7c-1.6,0-12.3,0-12.3,0s0-8.8,0-10.5
		C237.4,6.5,225.2,6.5,223.6,6.5z"/>
	<path class="st1" d="M419.7,6.5c0,1.7,0.2,10.5,0.2,10.5s-6.8,0-8.3,0c0,1.6,0,12.8,0,14.4c1.4,0,7.3,0,7.3,0v30.6
		c0,9.4,0,16.8,3.1,21.8c3.8,6,10.7,7.2,15.8,7.2c4.5,0,7.9-0.7,10.5-1.3c0-1.3,0-12.4,0-14.1c-5.6,0.3-8.9,0.1-10.9-1.7
		c-2.4-2.2-2.4-6.2-2.4-14.2V31.4c0,0,10.7,0,12.3,0c0-1.6,0-12.8,0-14.4c-1.6,0-12.3,0-12.3,0s0-8.8,0-10.5
		C433.5,6.5,421.4,6.5,419.7,6.5z"/>
	<path class="st1" d="M264.1,45.6c0,30.1,11.8,45.4,35,45.4c23.2,0,34.9-15.3,34.9-45.4C334,15.3,322.2,0,299,0
		C275.8,0,264.1,15.3,264.1,45.6z M284.9,45.6c0-20.4,2.3-31.4,14.2-31.4c13.1,0,14.2,14.2,14.2,31.4c0,16.5-1.1,31.3-14.2,31.3
		C287.2,76.8,284.9,65.4,284.9,45.6z"/>
	<path class="st1" d="M366.4,26.5c0,0-0.2-8-0.2-9.6c-1.6,0-14,0-15.7,0c0,1.9,0,70.9,0,72.7c1.6,0,15,0,16.6,0c0-1.8,0-42.8,0-42.8
		c0-8.9,0-17.3,9.2-17.3c7.3,0,7.3,6.7,7.3,12c0,0,0,46.2,0,48.1c1.6,0,15,0,16.6,0c0-1.9,0-48.1,0-48.1c0-7.4,0-14.4-2.6-18.9
		c-4.3-7.4-11.3-7.4-13.9-7.4C373.8,15.2,369,20.6,366.4,26.5z"/>
	<path class="st1" d="M575.2,16.8c0,1.9,0,71,0,72.8c1.6,0,15,0,16.6,0c0-1.9,0-71,0-72.8C590.1,16.8,576.8,16.8,575.2,16.8z"/>
	<path class="st1" d="M604.5,53.3c0,25,9.7,37.7,28.7,37.7c19.4,0,28.9-12.3,28.9-37.7c0-25.4-9.4-37.7-28.7-37.7
		C613.9,15.7,604.5,28,604.5,53.3z M623.5,53.3c0-16.7,1.5-25.2,9.7-25.2c7.5,0,9.8,6.1,9.8,25.2s-2.4,25.2-9.7,25.2
		C625.9,78.5,623.5,72.4,623.5,53.3z"/>
	<g>
		<path class="st1" d="M26.1,153.9c-0.5,3.1-1.9,12.6-12.4,12.6C1.4,166.5,0,153.3,0,147c0-6,1.2-19.8,13.8-19.8
			c10.6,0,11.9,9.7,12.4,13l-5.9,0.8c-0.4-3.2-1.1-8.6-6.4-8.6c-6.6,0-7.3,8.8-7.3,14.8c0,6.8,1.3,14.2,7.3,14.2
			c3.9,0,5.5-2.7,6.4-8.3L26.1,153.9z"/>
		<path class="st1" d="M76.4,132.7c1.3,0,6.2,0,6.2,5.9c0,3.8-1.8,6.5-6.3,6.5h-4.8v-12.4H76.4z M65.3,127.9v38h6.3V150h5.9l6,15.9
			h6.8L83,148.7c1.7-0.9,5.9-3.1,5.9-10c0-4.5-1.9-7.4-4-8.9c-2-1.4-4.6-1.9-8.1-1.9H65.3z"/>
		<path class="st1" d="M151,127.9v5h-15.4v10.9h12.1v5h-12.1v11.9h15.7v5.1h-22v-38H151z"/>
		<path class="st1" d="M198.3,132.9c8.1,0,10.4,6.7,10.4,14c0,2.6-0.2,8.3-3.8,11.7c-1,1.1-3.1,2.3-6.6,2.3h-2.6v-28H198.3z
			 M189.5,127.9v38h9c3.5,0,7.1-0.6,9.7-2.4c4.2-2.9,7.2-8.8,7.2-16.9c0-5.6-1.4-10.4-4.4-14c-3.6-4.1-9.2-4.7-12.9-4.7H189.5z"/>
		<path class="st1" d="M261.6,127.9v38h-6.3v-38H261.6z"/>
		<path class="st1" d="M321.5,127.9v5.4H313v32.6h-6.3v-32.6h-8.4v-5.4H321.5z"/>
		<path class="st1" d="M395.6,127.9v23.6c0,5.1,0,9.9,6.3,9.9c6.2,0,6.2-4.6,6.2-10v-23.5h5.6v23.2c0,5.5-0.1,10.3-3.9,13.2
			c-1.5,1.1-3.8,2.3-8.3,2.3c-12,0-12.1-8.4-12.1-15.1v-23.6H395.6z"/>
		<path class="st1" d="M460.3,127.9l12.5,27.4v-27.4h5.2v38h-5.9l-14.1-30.4v30.4h-5.2v-38H460.3z"/>
		<path class="st1" d="M525.3,127.9v38H519v-38H525.3z"/>
		<path class="st1" d="M579,132.4c3.3,0,4.6,2,5.5,3.9c1.4,3.2,1.5,8,1.5,10.6c0,2.1-0.1,7.2-1.5,10.6c-0.9,1.9-2.2,3.9-5.4,3.9
			c-3,0-4.5-1.4-5.6-3.9c-1.4-3.2-1.5-8.3-1.5-10.6c0-2.3,0.1-7.4,1.5-10.6C574.4,134.2,575.8,132.4,579,132.4z M579,127.2
			c-11.4,0-13.7,11-13.7,19.7c0,8.8,2.3,19.6,13.7,19.6c11.8,0,13.6-11.8,13.6-19.6C592.6,138,590.3,127.2,579,127.2z"/>
		<path class="st1" d="M639.7,127.9l12.5,27.4v-27.4h5.2v38h-5.9l-14.1-30.4v30.4h-5.2v-38H639.7z"/>
	</g>
	<path class="st1" d="M510.2,73.9V44.5c0-9.2-0.3-17.1-4.1-21.3c-5.3-6.2-13-7.5-18.6-7.5c-6.1,0-11.2,1.3-15.3,3.9
		c-8.5,5.4-9.9,13.1-10.5,17.4h15.7c0.6-4.3,2.2-9.6,8.6-9.6c7.6,0,7.6,7.9,7.6,14.2v3.8l-0.9,0.1c-23.8,1.4-33.5,9-33.5,26.2
		c0,17.9,12.6,19.3,16.5,19.3c11.3,0,17.2-8.1,19.4-12.4c0,0,0,1.3,0,1.6c0,5.2,0.2,6.9,0.7,9.3c1.3,0,13.2,0,15.2,0
		C510.5,87.3,510.2,84.7,510.2,73.9z M493.6,58.6c0,6.6-0.2,11.6-3,16.1c-1.9,3-4.1,4.5-6.9,4.5c-4.6,0-7.2-3.8-7.2-10.3
		c0-10.7,5.6-13.5,16-14.9l1.1-0.2V58.6z"/>
</g>
</svg>
