<?xml version="1.0" encoding="utf-8"?>
<!-- Generator: Adobe Illustrator 23.0.6, SVG Export Plug-In . SVG Version: 6.00 Build 0)  -->
<svg version="1.1" id="Layer_1" xmlns="http://www.w3.org/2000/svg" xmlns:xlink="http://www.w3.org/1999/xlink" x="0px" y="0px"
	 viewBox="0 0 300 100" style="enable-background:new 0 0 300 100;" xml:space="preserve">
<style type="text/css">
	.st0{fill:#005580;}
	.st1{fill:#FFBE19;}
</style>
<g>
	<path class="st0" d="M65.7,65.2L61.4,30L46.7,60.1h-5.3L26.6,29.9l-4.2,35.2h-6L22,18.9h5.5L44,53.2l16.4-34.3H66l5.7,46.2
		L65.7,65.2L65.7,65.2z"/>
	<path class="st0" d="M109.3,52H83.8c0.9,5.6,4.9,8.3,10.3,8.3c3.8,0,7.4-1.6,9.1-4.8l5.1,2c-2.7,5.4-8.4,8.2-14.4,8.2
		c-8.9,0-16.1-6.5-16.1-16.4S85,33.1,93.9,33.1s15.6,6.3,15.6,16.2C109.4,50.3,109.4,51.1,109.3,52L109.3,52z M103.6,47
		c-0.7-5.4-4.6-8.3-9.7-8.3c-5.3,0-9.1,2.7-10,8.3H103.6z"/>
	<path class="st0" d="M136.8,34.4l-0.9,5.5c-1.7-0.8-3.3-1.1-4.6-1.1c-6.2,0-8.7,6.6-8.7,14.9v11.4h-5.9V33.8h5.9V41
		c1.6-5.5,4.6-7.8,8.8-7.8C133.6,33.2,135.9,33.7,136.8,34.4L136.8,34.4z"/>
	<path class="st0" d="M141.6,22.3c0-2.2,1.9-3.9,4.1-3.9c2.3,0,4.2,1.7,4.2,3.9s-1.9,3.9-4.2,3.9C143.4,26.2,141.6,24.5,141.6,22.3z
		 M142.8,33.8h5.8v31.3h-5.8V33.8z"/>
	<path class="st0" d="M188.9,16.7v48.4H183v-5c-2.1,3.6-6.6,5.6-11.1,5.6c-8.6,0-15.7-6.5-15.7-16.4S163.3,33,171.8,33
		c4.7,0,9.1,1.9,11.2,5.6v-22L188.9,16.7z M183,49.4c0-6.8-5.5-10.7-10.7-10.7c-5.7,0-10.3,4.4-10.3,10.7c0,6.2,4.6,10.9,10.3,10.9
		C178,60.3,183,56.1,183,49.4L183,49.4z"/>
	<path class="st0" d="M196.7,22.3c0-2.2,1.9-3.9,4.1-3.9c2.3,0,4.2,1.7,4.2,3.9s-1.9,3.9-4.2,3.9C198.6,26.2,196.7,24.5,196.7,22.3z
		 M197.9,33.8h5.8v31.3h-5.8V33.8z"/>
	<path class="st0" d="M244,33.8v31.3h-5.8v-5c-2.1,3.6-6.6,5.6-11.1,5.6c-8.6,0-15.7-6.5-15.7-16.4S218.5,33,227,33
		c4.7,0,9.1,1.9,11.2,5.6v-4.9L244,33.8L244,33.8z M238.1,49.4c0-6.8-5.5-10.7-10.7-10.7c-5.7,0-10.3,4.4-10.3,10.7
		c0,6.2,4.6,10.9,10.3,10.9C233.1,60.3,238.1,56.1,238.1,49.4z"/>
	<path class="st0" d="M281.2,47v18.1h-5.8V47.4c0-5.2-3.2-8.5-7.6-8.5s-9.6,2.5-9.6,9.3v17h-5.8V33.8h5.8v4.8
		c1.9-3.8,7-5.4,10.4-5.4C276.4,33.2,281.3,38.3,281.2,47z"/>
	<path class="st0" d="M282.3,26h3.8v0.7h-1.5v4.5h-0.7v-4.5h-1.5L282.3,26L282.3,26z M292,31.1l-0.4-3.8l-1.6,3.2h-0.6l-1.6-3.2
		l-0.4,3.8h-0.8l0.7-5.1h0.7l1.8,3.8l1.8-3.8h0.7l0.6,5.1H292L292,31.1z"/>
</g>
<path class="st1" d="M6.5,65.4c0,0,12,15.5,37.6,15.5s37.6-15.5,37.6-15.5s-8.5,20-37.6,20S6.5,65.4,6.5,65.4L6.5,65.4z"/>
</svg>
